<svg id="Layer_1" data-name="Layer 1" xmlns="http://www.w3.org/2000/svg" viewBox="0 0 98 13.72"><path fill="#72b1c8" d="M23.05,5.17a2.34,2.34,0,0,1-2.63,2.3H18.25A0.41,0.41,0,0,1,17.83,7V3.23a0.41,0.41,0,0,1,.42-0.42h2.12c1.66,0,2.69.88,2.69,2.3V5.17h0ZM20.64,0.63H15.53a0.19,0.19,0,0,0-.18.18V13.45a0.21,0.21,0,0,0,.21.21h2a0.21,0.21,0,0,0,.21-0.21V10a0.41,0.41,0,0,1,.42-0.42H20.3c3.17,0,5.23-1.75,5.23-4.5v0c0-2.69-1.9-4.44-4.9-4.44"/><path fill="#72b1c8" d="M35.69,5.17a2.34,2.34,0,0,1-2.63,2.3H30.88A0.41,0.41,0,0,1,30.46,7V3.23a0.41,0.41,0,0,1,.42-0.42H33c1.66,0,2.69.88,2.69,2.3V5.17h0ZM33.24,0.63H28.13A0.19,0.19,0,0,0,28,.82V13.45a0.21,0.21,0,0,0,.21.21h2a0.21,0.21,0,0,0,.21-0.21V10a0.41,0.41,0,0,1,.42-0.42h2.09c3.17,0,5.23-1.75,5.23-4.5v0c0-2.69-1.9-4.44-4.9-4.44"/><path fill="#72b1c8" d="M63.85,11.51H57.14a0.41,0.41,0,0,1-.42-0.42V8.58a0.41,0.41,0,0,1,.42-0.42h5.77A0.19,0.19,0,0,0,63.1,8V6.2A0.19,0.19,0,0,0,62.91,6H57.14a0.41,0.41,0,0,1-.42-0.42V3.17a0.41,0.41,0,0,1,.42-0.42h6.65A0.19,0.19,0,0,0,64,2.57V0.79A0.19,0.19,0,0,0,63.79.6H54.42a0.19,0.19,0,0,0-.18.18V13.42a0.21,0.21,0,0,0,.21.21h9.37A0.21,0.21,0,0,0,64,13.42V11.73a0.18,0.18,0,0,0-.18-0.21"/><path fill="#72b1c8" d="M78.6,0.63H76.51a0.19,0.19,0,0,0-.18.18V8.55a0.33,0.33,0,0,1-.21.33,0.32,0.32,0,0,1-.36-0.15l-6.1-8A0.23,0.23,0,0,0,69.53.63H67.42a0.19,0.19,0,0,0-.18.18V13.45a0.21,0.21,0,0,0,.21.21h2a0.21,0.21,0,0,0,.21-0.21V5.5a0.33,0.33,0,0,1,.21-0.33H70a0.36,0.36,0,0,1,.27.15l6.32,8.28a0.18,0.18,0,0,0,.18.09h1.81a0.21,0.21,0,0,0,.21-0.21V0.85A0.18,0.18,0,0,0,78.6.63"/><path fill="#72b1c8" d="M92.08,0.63H81.71a0.19,0.19,0,0,0-.18.18v1.9a0.19,0.19,0,0,0,.18.18h3.51a0.41,0.41,0,0,1,.42.42V13.48a0.21,0.21,0,0,0,.21.21h2a0.21,0.21,0,0,0,.21-0.21V3.32a0.41,0.41,0,0,1,.42-0.42h3.57a0.19,0.19,0,0,0,.18-0.18V0.82A0.19,0.19,0,0,0,92.08.63"/><path fill="#72b1c8" d="M97.43,4.5h-2a0.21,0.21,0,0,0-.21.21v8.73a0.21,0.21,0,0,0,.21.21h2a0.21,0.21,0,0,0,.21-0.21V4.71a0.21,0.21,0,0,0-.21-0.21"/><path fill="#72b1c8" d="M49,5a2,2,0,0,1-1.36,2,1.31,1.31,0,0,1-.15,0,0.44,0.44,0,0,1-.39-0.21L44.78,3.35a0.38,0.38,0,0,1,0-.36,0.35,0.35,0,0,1,.33-0.18h1.33c1.66,0,2.6.82,2.6,2.21h0ZM46.66,0.57H40.43a0.19,0.19,0,0,0-.15.09,0.35,0.35,0,0,0,0,.18l4,6.07-0.06.15c-0.06.15-.18,0.15-0.39,0.15H40.7v6.26a0.21,0.21,0,0,0,.21.21H43a0.21,0.21,0,0,0,.21-0.21V9.76a0.41,0.41,0,0,1,.42-0.42h2a0.62,0.62,0,0,1,.48.24l2.69,4a0.22,0.22,0,0,0,.18.09h2.36a0.18,0.18,0,0,0,.18-0.12,0.18,0.18,0,0,0,0-.21l-3-4.41,0.3-.12a4,4,0,0,0,2.69-4v0a4,4,0,0,0-1.09-2.93A5.2,5.2,0,0,0,46.66.57"/><path fill="#ff4338" d="M6.68,0.91a0.17,0.17,0,0,0-.3,0L0,13.42a0.25,0.25,0,0,0,0,.21,0.2,0.2,0,0,0,.18.09H2.35a0.17,0.17,0,0,0,.18-0.12L6.19,6.41a0.38,0.38,0,0,1,.3-0.21h0a0.35,0.35,0,0,1,.3.21l3.66,7.19a0.25,0.25,0,0,0,.18.12h2.15A0.2,0.2,0,0,0,13,13.63a0.18,0.18,0,0,0,0-.21Z"/><path fill="#ff4338" d="M96.49,3A1.5,1.5,0,0,0,98,1.51,1.52,1.52,0,0,0,96.49,0,1.5,1.5,0,0,0,95,1.51,1.54,1.54,0,0,0,96.49,3"/></svg>